<svg xmlns="http://www.w3.org/2000/svg" width="880" height="724" viewBox="0 0 880 724" role="img" aria-label="SAT arena — 133 loaded instances">
<title>SAT arena — 133 loaded instances</title>
<defs><linearGradient id="g0" x1="0" y1="0" x2="0" y2="1"><stop offset="0" stop-color="#0a1224"/><stop offset="1" stop-color="#05070e"/></linearGradient><linearGradient id="g1" x1="0" y1="0" x2="1" y2="0"><stop offset="0" stop-color="#00d4ff"/><stop offset="1" stop-color="#05070e"/></linearGradient><linearGradient id="g2" x1="0" y1="0" x2="1" y2="0"><stop offset="0" stop-color="#6be6ff"/><stop offset="1" stop-color="#00d4ff"/></linearGradient><linearGradient id="g3" x1="0" y1="0" x2="1" y2="0"><stop offset="0" stop-color="#fcbf8d"/><stop offset="1" stop-color="#fb923c"/></linearGradient><linearGradient id="g4" x1="0" y1="0" x2="1" y2="0"><stop offset="0" stop-color="#c4cbd5"/><stop offset="1" stop-color="#9aa6b8"/></linearGradient></defs>
<rect x="0" y="0" width="880" height="724" rx="16" fill="url(#g0)"/>
<rect x="1" y="1" width="878" height="722" rx="16" fill="none" stroke="rgba(255,255,255,0.05)"/>
<rect x="0" y="0" width="880" height="3.5" fill="url(#g1)"/>
<text x="40.0" y="20.0" font-family="ui-monospace, SFMono-Regular, Menlo, Consolas, monospace" font-size="10" fill="#00d4ff" text-anchor="start" font-weight="700" letter-spacing="2">SATLIB · BROAD COVERAGE</text>
<rect x="24.0" y="30.0" width="6.0" height="19.0" rx="3.0" fill="url(#g2)"/>
<text x="40.0" y="45.0" font-family="ui-sans-serif, system-ui, -apple-system, Segoe UI, Roboto, sans-serif" font-size="19" fill="#eef2f8" text-anchor="start" font-weight="800">SAT arena — 133 loaded instances, 20 SATLIB families</text>
<text x="40.0" y="64.0" font-family="ui-sans-serif, system-ui, -apple-system, Segoe UI, Roboto, sans-serif" font-size="12.5" fill="#93a4bd" text-anchor="start">Ours vs Kissat &amp; CaDiCaL at a 20s timeout. We solve the most, at the lowest PAR-2, and machine-check every UNSAT.</text>
<rect x="20.0" y="84.0" width="840.0" height="74.0" rx="10.0" fill="rgba(255,255,255,0.018)" stroke="rgba(255,255,255,0.06)" stroke-width="1"/>
<rect x="34.0" y="98.0" width="11.0" height="11.0" rx="3.0" fill="url(#g2)"/>
<text x="50.0" y="107.0" font-family="ui-sans-serif, system-ui, -apple-system, Segoe UI, Roboto, sans-serif" font-size="12.5" fill="#00d4ff" text-anchor="start" font-weight="700">LOGOS (ours)</text>
<text x="34.0" y="132.0" font-family="ui-monospace, SFMono-Regular, Menlo, Consolas, monospace" font-size="18" fill="#eef2f8" text-anchor="start" font-weight="800">120/133</text>
<text x="122.0" y="132.0" font-family="ui-sans-serif, system-ui, -apple-system, Segoe UI, Roboto, sans-serif" font-size="11" fill="#93a4bd" text-anchor="start">solved</text>
<text x="34.0" y="150.0" font-family="ui-sans-serif, system-ui, -apple-system, Segoe UI, Roboto, sans-serif" font-size="10.5" fill="#93a4bd" text-anchor="start">PAR-2 602  ·  49 proofs ✓</text>
<rect x="314.0" y="98.0" width="11.0" height="11.0" rx="3.0" fill="url(#g3)"/>
<text x="330.0" y="107.0" font-family="ui-sans-serif, system-ui, -apple-system, Segoe UI, Roboto, sans-serif" font-size="12.5" fill="#fb923c" text-anchor="start" font-weight="700">Kissat</text>
<text x="314.0" y="132.0" font-family="ui-monospace, SFMono-Regular, Menlo, Consolas, monospace" font-size="18" fill="#eef2f8" text-anchor="start" font-weight="800">111/133</text>
<text x="402.0" y="132.0" font-family="ui-sans-serif, system-ui, -apple-system, Segoe UI, Roboto, sans-serif" font-size="11" fill="#93a4bd" text-anchor="start">solved</text>
<text x="314.0" y="150.0" font-family="ui-sans-serif, system-ui, -apple-system, Segoe UI, Roboto, sans-serif" font-size="10.5" fill="#93a4bd" text-anchor="start">PAR-2 975  ·  0 proofs</text>
<rect x="594.0" y="98.0" width="11.0" height="11.0" rx="3.0" fill="url(#g4)"/>
<text x="610.0" y="107.0" font-family="ui-sans-serif, system-ui, -apple-system, Segoe UI, Roboto, sans-serif" font-size="12.5" fill="#9aa6b8" text-anchor="start" font-weight="700">CaDiCaL</text>
<text x="594.0" y="132.0" font-family="ui-monospace, SFMono-Regular, Menlo, Consolas, monospace" font-size="18" fill="#eef2f8" text-anchor="start" font-weight="800">112/133</text>
<text x="682.0" y="132.0" font-family="ui-sans-serif, system-ui, -apple-system, Segoe UI, Roboto, sans-serif" font-size="11" fill="#93a4bd" text-anchor="start">solved</text>
<text x="594.0" y="150.0" font-family="ui-sans-serif, system-ui, -apple-system, Segoe UI, Roboto, sans-serif" font-size="10.5" fill="#93a4bd" text-anchor="start">PAR-2 924  ·  0 proofs</text>
<text x="190.0" y="170.0" font-family="ui-sans-serif, system-ui, -apple-system, Segoe UI, Roboto, sans-serif" font-size="10" fill="#5b6b86" text-anchor="start">fraction of each family solved within 20s — longer = more solved</text>
<text x="180.0" y="193.0" font-family="ui-sans-serif, system-ui, -apple-system, Segoe UI, Roboto, sans-serif" font-size="11" fill="#eef2f8" text-anchor="end">struct · modp</text>
<rect x="190.0" y="180.0" width="570.0" height="20.0" rx="3.0" fill="rgba(255,255,255,0.035)"/>
<rect x="190.0" y="181.0" width="570.0" height="5.0" rx="2.0" fill="url(#g2)"/>
<rect x="190.0" y="187.0" width="190.0" height="5.0" rx="2.0" fill="url(#g3)"/>
<rect x="190.0" y="193.0" width="190.0" height="5.0" rx="2.0" fill="url(#g4)"/>
<text x="768.0" y="193.0" font-family="ui-monospace, SFMono-Regular, Menlo, Consolas, monospace" font-size="9.5" fill="#93a4bd" text-anchor="start">6/2/2 of 6</text>
<text x="180.0" y="218.0" font-family="ui-sans-serif, system-ui, -apple-system, Segoe UI, Roboto, sans-serif" font-size="11" fill="#eef2f8" text-anchor="end">struct · php</text>
<rect x="190.0" y="205.0" width="570.0" height="20.0" rx="3.0" fill="rgba(255,255,255,0.035)"/>
<rect x="190.0" y="206.0" width="570.0" height="5.0" rx="2.0" fill="url(#g2)"/>
<rect x="190.0" y="212.0" width="0.0" height="5.0" rx="2.0" fill="url(#g3)"/>
<rect x="190.0" y="218.0" width="0.0" height="5.0" rx="2.0" fill="url(#g4)"/>
<text x="768.0" y="218.0" font-family="ui-monospace, SFMono-Regular, Menlo, Consolas, monospace" font-size="9.5" fill="#93a4bd" text-anchor="start">4/0/0 of 4</text>
<text x="180.0" y="243.0" font-family="ui-sans-serif, system-ui, -apple-system, Segoe UI, Roboto, sans-serif" font-size="11" fill="#eef2f8" text-anchor="end">struct · tseitin</text>
<rect x="190.0" y="230.0" width="570.0" height="20.0" rx="3.0" fill="rgba(255,255,255,0.035)"/>
<rect x="190.0" y="231.0" width="570.0" height="5.0" rx="2.0" fill="url(#g2)"/>
<rect x="190.0" y="237.0" width="380.0" height="5.0" rx="2.0" fill="url(#g3)"/>
<rect x="190.0" y="243.0" width="380.0" height="5.0" rx="2.0" fill="url(#g4)"/>
<text x="768.0" y="243.0" font-family="ui-monospace, SFMono-Regular, Menlo, Consolas, monospace" font-size="9.5" fill="#93a4bd" text-anchor="start">3/2/2 of 3</text>
<text x="180.0" y="268.0" font-family="ui-sans-serif, system-ui, -apple-system, Segoe UI, Roboto, sans-serif" font-size="11" fill="#eef2f8" text-anchor="end">crafted · aim</text>
<rect x="190.0" y="255.0" width="570.0" height="20.0" rx="3.0" fill="rgba(255,255,255,0.035)"/>
<rect x="190.0" y="256.0" width="570.0" height="5.0" rx="2.0" fill="url(#g2)"/>
<rect x="190.0" y="262.0" width="570.0" height="5.0" rx="2.0" fill="url(#g3)"/>
<rect x="190.0" y="268.0" width="570.0" height="5.0" rx="2.0" fill="url(#g4)"/>
<text x="768.0" y="268.0" font-family="ui-monospace, SFMono-Regular, Menlo, Consolas, monospace" font-size="9.5" fill="#93a4bd" text-anchor="start">12/12/12 of 12</text>
<text x="180.0" y="293.0" font-family="ui-sans-serif, system-ui, -apple-system, Segoe UI, Roboto, sans-serif" font-size="11" fill="#eef2f8" text-anchor="end">crafted · dubois</text>
<rect x="190.0" y="280.0" width="570.0" height="20.0" rx="3.0" fill="rgba(255,255,255,0.035)"/>
<rect x="190.0" y="281.0" width="570.0" height="5.0" rx="2.0" fill="url(#g2)"/>
<rect x="190.0" y="287.0" width="570.0" height="5.0" rx="2.0" fill="url(#g3)"/>
<rect x="190.0" y="293.0" width="570.0" height="5.0" rx="2.0" fill="url(#g4)"/>
<text x="768.0" y="293.0" font-family="ui-monospace, SFMono-Regular, Menlo, Consolas, monospace" font-size="9.5" fill="#93a4bd" text-anchor="start">12/12/12 of 12</text>
<text x="180.0" y="318.0" font-family="ui-sans-serif, system-ui, -apple-system, Segoe UI, Roboto, sans-serif" font-size="11" fill="#eef2f8" text-anchor="end">random · jnh</text>
<rect x="190.0" y="305.0" width="570.0" height="20.0" rx="3.0" fill="rgba(255,255,255,0.035)"/>
<rect x="190.0" y="306.0" width="570.0" height="5.0" rx="2.0" fill="url(#g2)"/>
<rect x="190.0" y="312.0" width="570.0" height="5.0" rx="2.0" fill="url(#g3)"/>
<rect x="190.0" y="318.0" width="570.0" height="5.0" rx="2.0" fill="url(#g4)"/>
<text x="768.0" y="318.0" font-family="ui-monospace, SFMono-Regular, Menlo, Consolas, monospace" font-size="9.5" fill="#93a4bd" text-anchor="start">12/12/12 of 12</text>
<text x="180.0" y="343.0" font-family="ui-sans-serif, system-ui, -apple-system, Segoe UI, Roboto, sans-serif" font-size="11" fill="#eef2f8" text-anchor="end">random · uf250</text>
<rect x="190.0" y="330.0" width="570.0" height="20.0" rx="3.0" fill="rgba(255,255,255,0.035)"/>
<rect x="190.0" y="331.0" width="570.0" height="5.0" rx="2.0" fill="url(#g2)"/>
<rect x="190.0" y="337.0" width="570.0" height="5.0" rx="2.0" fill="url(#g3)"/>
<rect x="190.0" y="343.0" width="570.0" height="5.0" rx="2.0" fill="url(#g4)"/>
<text x="768.0" y="343.0" font-family="ui-monospace, SFMono-Regular, Menlo, Consolas, monospace" font-size="9.5" fill="#93a4bd" text-anchor="start">12/12/12 of 12</text>
<text x="180.0" y="368.0" font-family="ui-sans-serif, system-ui, -apple-system, Segoe UI, Roboto, sans-serif" font-size="11" fill="#eef2f8" text-anchor="end">random · uuf250</text>
<rect x="190.0" y="355.0" width="570.0" height="20.0" rx="3.0" fill="rgba(255,255,255,0.035)"/>
<rect x="190.0" y="356.0" width="570.0" height="5.0" rx="2.0" fill="url(#g2)"/>
<rect x="190.0" y="362.0" width="570.0" height="5.0" rx="2.0" fill="url(#g3)"/>
<rect x="190.0" y="368.0" width="570.0" height="5.0" rx="2.0" fill="url(#g4)"/>
<text x="768.0" y="368.0" font-family="ui-monospace, SFMono-Regular, Menlo, Consolas, monospace" font-size="9.5" fill="#93a4bd" text-anchor="start">12/12/12 of 12</text>
<text x="180.0" y="393.0" font-family="ui-sans-serif, system-ui, -apple-system, Segoe UI, Roboto, sans-serif" font-size="11" fill="#eef2f8" text-anchor="end">crafted · parity</text>
<rect x="190.0" y="380.0" width="570.0" height="20.0" rx="3.0" fill="rgba(255,255,255,0.035)"/>
<rect x="190.0" y="381.0" width="475.0" height="5.0" rx="2.0" fill="url(#g2)"/>
<rect x="190.0" y="387.0" width="475.0" height="5.0" rx="2.0" fill="url(#g3)"/>
<rect x="190.0" y="393.0" width="475.0" height="5.0" rx="2.0" fill="url(#g4)"/>
<text x="768.0" y="393.0" font-family="ui-monospace, SFMono-Regular, Menlo, Consolas, monospace" font-size="9.5" fill="#93a4bd" text-anchor="start">10/10/10 of 12</text>
<text x="180.0" y="418.0" font-family="ui-sans-serif, system-ui, -apple-system, Segoe UI, Roboto, sans-serif" font-size="11" fill="#eef2f8" text-anchor="end">app · ssa</text>
<rect x="190.0" y="405.0" width="570.0" height="20.0" rx="3.0" fill="rgba(255,255,255,0.035)"/>
<rect x="190.0" y="406.0" width="570.0" height="5.0" rx="2.0" fill="url(#g2)"/>
<rect x="190.0" y="412.0" width="570.0" height="5.0" rx="2.0" fill="url(#g3)"/>
<rect x="190.0" y="418.0" width="570.0" height="5.0" rx="2.0" fill="url(#g4)"/>
<text x="768.0" y="418.0" font-family="ui-monospace, SFMono-Regular, Menlo, Consolas, monospace" font-size="9.5" fill="#93a4bd" text-anchor="start">8/8/8 of 8</text>
<text x="180.0" y="443.0" font-family="ui-sans-serif, system-ui, -apple-system, Segoe UI, Roboto, sans-serif" font-size="11" fill="#eef2f8" text-anchor="end">app · blocksworld</text>
<rect x="190.0" y="430.0" width="570.0" height="20.0" rx="3.0" fill="rgba(255,255,255,0.035)"/>
<rect x="190.0" y="431.0" width="570.0" height="5.0" rx="2.0" fill="url(#g2)"/>
<rect x="190.0" y="437.0" width="570.0" height="5.0" rx="2.0" fill="url(#g3)"/>
<rect x="190.0" y="443.0" width="570.0" height="5.0" rx="2.0" fill="url(#g4)"/>
<text x="768.0" y="443.0" font-family="ui-monospace, SFMono-Regular, Menlo, Consolas, monospace" font-size="9.5" fill="#93a4bd" text-anchor="start">7/7/7 of 7</text>
<text x="180.0" y="468.0" font-family="ui-sans-serif, system-ui, -apple-system, Segoe UI, Roboto, sans-serif" font-size="11" fill="#eef2f8" text-anchor="end">app · bf</text>
<rect x="190.0" y="455.0" width="570.0" height="20.0" rx="3.0" fill="rgba(255,255,255,0.035)"/>
<rect x="190.0" y="456.0" width="570.0" height="5.0" rx="2.0" fill="url(#g2)"/>
<rect x="190.0" y="462.0" width="570.0" height="5.0" rx="2.0" fill="url(#g3)"/>
<rect x="190.0" y="468.0" width="570.0" height="5.0" rx="2.0" fill="url(#g4)"/>
<text x="768.0" y="468.0" font-family="ui-monospace, SFMono-Regular, Menlo, Consolas, monospace" font-size="9.5" fill="#93a4bd" text-anchor="start">4/4/4 of 4</text>
<text x="180.0" y="493.0" font-family="ui-sans-serif, system-ui, -apple-system, Segoe UI, Roboto, sans-serif" font-size="11" fill="#eef2f8" text-anchor="end">app · logistics</text>
<rect x="190.0" y="480.0" width="570.0" height="20.0" rx="3.0" fill="rgba(255,255,255,0.035)"/>
<rect x="190.0" y="481.0" width="570.0" height="5.0" rx="2.0" fill="url(#g2)"/>
<rect x="190.0" y="487.0" width="570.0" height="5.0" rx="2.0" fill="url(#g3)"/>
<rect x="190.0" y="493.0" width="570.0" height="5.0" rx="2.0" fill="url(#g4)"/>
<text x="768.0" y="493.0" font-family="ui-monospace, SFMono-Regular, Menlo, Consolas, monospace" font-size="9.5" fill="#93a4bd" text-anchor="start">4/4/4 of 4</text>
<text x="180.0" y="518.0" font-family="ui-sans-serif, system-ui, -apple-system, Segoe UI, Roboto, sans-serif" font-size="11" fill="#eef2f8" text-anchor="end">struct · ordering</text>
<rect x="190.0" y="505.0" width="570.0" height="20.0" rx="3.0" fill="rgba(255,255,255,0.035)"/>
<rect x="190.0" y="506.0" width="570.0" height="5.0" rx="2.0" fill="url(#g2)"/>
<rect x="190.0" y="512.0" width="570.0" height="5.0" rx="2.0" fill="url(#g3)"/>
<rect x="190.0" y="518.0" width="570.0" height="5.0" rx="2.0" fill="url(#g4)"/>
<text x="768.0" y="518.0" font-family="ui-monospace, SFMono-Regular, Menlo, Consolas, monospace" font-size="9.5" fill="#93a4bd" text-anchor="start">4/4/4 of 4</text>
<text x="180.0" y="543.0" font-family="ui-sans-serif, system-ui, -apple-system, Segoe UI, Roboto, sans-serif" font-size="11" fill="#eef2f8" text-anchor="end">struct · clique</text>
<rect x="190.0" y="530.0" width="570.0" height="20.0" rx="3.0" fill="rgba(255,255,255,0.035)"/>
<rect x="190.0" y="531.0" width="570.0" height="5.0" rx="2.0" fill="url(#g2)"/>
<rect x="190.0" y="537.0" width="190.0" height="5.0" rx="2.0" fill="url(#g3)"/>
<rect x="190.0" y="543.0" width="570.0" height="5.0" rx="2.0" fill="url(#g4)"/>
<text x="768.0" y="543.0" font-family="ui-monospace, SFMono-Regular, Menlo, Consolas, monospace" font-size="9.5" fill="#93a4bd" text-anchor="start">3/1/3 of 3</text>
<text x="180.0" y="568.0" font-family="ui-sans-serif, system-ui, -apple-system, Segoe UI, Roboto, sans-serif" font-size="11" fill="#eef2f8" text-anchor="end">app · hanoi</text>
<rect x="190.0" y="555.0" width="570.0" height="20.0" rx="3.0" fill="rgba(255,255,255,0.035)"/>
<rect x="190.0" y="556.0" width="570.0" height="5.0" rx="2.0" fill="url(#g2)"/>
<rect x="190.0" y="562.0" width="570.0" height="5.0" rx="2.0" fill="url(#g3)"/>
<rect x="190.0" y="568.0" width="570.0" height="5.0" rx="2.0" fill="url(#g4)"/>
<text x="768.0" y="568.0" font-family="ui-monospace, SFMono-Regular, Menlo, Consolas, monospace" font-size="9.5" fill="#93a4bd" text-anchor="start">2/2/2 of 2</text>
<text x="180.0" y="593.0" font-family="ui-sans-serif, system-ui, -apple-system, Segoe UI, Roboto, sans-serif" font-size="11" fill="#eef2f8" text-anchor="end">scale · n350</text>
<rect x="190.0" y="580.0" width="570.0" height="20.0" rx="3.0" fill="rgba(255,255,255,0.035)"/>
<rect x="190.0" y="581.0" width="0.0" height="5.0" rx="2.0" fill="url(#g2)"/>
<rect x="190.0" y="587.0" width="0.0" height="5.0" rx="2.0" fill="url(#g3)"/>
<rect x="190.0" y="593.0" width="0.0" height="5.0" rx="2.0" fill="url(#g4)"/>
<text x="768.0" y="593.0" font-family="ui-monospace, SFMono-Regular, Menlo, Consolas, monospace" font-size="9.5" fill="#93a4bd" text-anchor="start">0/0/0 of 4</text>
<text x="180.0" y="618.0" font-family="ui-sans-serif, system-ui, -apple-system, Segoe UI, Roboto, sans-serif" font-size="11" fill="#eef2f8" text-anchor="end">scale · n400</text>
<rect x="190.0" y="605.0" width="570.0" height="20.0" rx="3.0" fill="rgba(255,255,255,0.035)"/>
<rect x="190.0" y="606.0" width="0.0" height="5.0" rx="2.0" fill="url(#g2)"/>
<rect x="190.0" y="612.0" width="0.0" height="5.0" rx="2.0" fill="url(#g3)"/>
<rect x="190.0" y="618.0" width="0.0" height="5.0" rx="2.0" fill="url(#g4)"/>
<text x="768.0" y="618.0" font-family="ui-monospace, SFMono-Regular, Menlo, Consolas, monospace" font-size="9.5" fill="#93a4bd" text-anchor="start">0/0/0 of 4</text>
<text x="180.0" y="643.0" font-family="ui-sans-serif, system-ui, -apple-system, Segoe UI, Roboto, sans-serif" font-size="11" fill="#eef2f8" text-anchor="end">scale · n300</text>
<rect x="190.0" y="630.0" width="570.0" height="20.0" rx="3.0" fill="rgba(255,255,255,0.035)"/>
<rect x="190.0" y="631.0" width="427.5" height="5.0" rx="2.0" fill="url(#g2)"/>
<rect x="190.0" y="637.0" width="570.0" height="5.0" rx="2.0" fill="url(#g3)"/>
<rect x="190.0" y="643.0" width="427.5" height="5.0" rx="2.0" fill="url(#g4)"/>
<text x="768.0" y="643.0" font-family="ui-monospace, SFMono-Regular, Menlo, Consolas, monospace" font-size="9.5" fill="#93a4bd" text-anchor="start">3/4/3 of 4</text>
<text x="180.0" y="668.0" font-family="ui-sans-serif, system-ui, -apple-system, Segoe UI, Roboto, sans-serif" font-size="11" fill="#eef2f8" text-anchor="end">struct · chessboard</text>
<rect x="190.0" y="655.0" width="570.0" height="20.0" rx="3.0" fill="rgba(255,255,255,0.035)"/>
<rect x="190.0" y="656.0" width="285.0" height="5.0" rx="2.0" fill="url(#g2)"/>
<rect x="190.0" y="662.0" width="427.5" height="5.0" rx="2.0" fill="url(#g3)"/>
<rect x="190.0" y="668.0" width="427.5" height="5.0" rx="2.0" fill="url(#g4)"/>
<text x="768.0" y="668.0" font-family="ui-monospace, SFMono-Regular, Menlo, Consolas, monospace" font-size="9.5" fill="#93a4bd" text-anchor="start">2/3/3 of 4</text>
<text x="24.0" y="711.0" font-family="ui-sans-serif, system-ui, -apple-system, Segoe UI, Roboto, sans-serif" font-size="9.5" fill="#5b6b86" text-anchor="start">Bars = ours / Kissat / CaDiCaL solved per family (ordered by our margin). Lower PAR-2 = better; ‘proofs ✓’ = UNSATs we machine-check, the others emit none.</text>
</svg>
