<svg version="1.1" id="Layer_1" xmlns="http://www.w3.org/2000/svg" xmlns:xlink="http://www.w3.org/1999/xlink" x="0px" y="0px"
	 width="100%" viewBox="0 0 1024 1024" enable-background="new 0 0 1024 1024" xml:space="preserve">
<path fill="#000000" opacity="1.000000" stroke="none" 
	d="
M143.670105,684.233643 
	C126.034660,647.260925 114.717255,608.758606 108.912865,568.649231 
	C104.967468,541.385803 103.773453,513.934509 105.860229,486.460999 
	C112.524780,398.718658 142.979401,320.444244 199.522049,252.626862 
	C233.655594,211.687027 274.217896,178.648346 321.144196,153.444778 
	C361.549225,131.743713 404.526306,117.662575 449.821045,110.572708 
	C475.550934,106.545280 501.457306,104.791435 527.449341,105.838982 
	C587.653320,108.265366 644.764038,122.741859 698.539185,150.285843 
	C734.570374,168.741272 767.197144,191.903214 796.237671,219.974899 
	C834.018494,256.495209 863.784058,298.730927 885.368164,346.769501 
	C899.302307,377.781891 909.047119,410.012268 914.909119,443.401031 
	C918.302917,462.730957 919.813110,482.287323 920.513245,501.951263 
	C922.001404,543.747742 916.790588,584.652344 905.250244,624.740601 
	C888.726868,682.138489 860.460815,733.297241 821.358154,778.319397 
	C787.467407,817.340698 747.431335,848.688416 701.471863,872.591736 
	C660.142151,894.087036 616.565613,908.391235 570.543213,915.057251 
	C541.957275,919.197815 513.195129,919.323914 484.351044,917.539917 
	C423.773499,913.793335 367.302216,896.413574 314.497498,866.936096 
	C251.326050,831.671509 200.883774,783.073120 163.294739,721.170715 
	C156.103790,709.328430 149.774750,697.062012 143.670105,684.233643 
M451.208405,720.926514 
	C449.073700,721.269409 446.950378,721.738037 444.802277,721.932800 
	C436.720734,722.665466 428.800598,725.994873 420.620239,724.487732 
	C391.515167,719.125610 362.462982,713.475281 333.397125,707.901001 
	C316.907074,704.738403 300.424103,701.538391 283.948883,698.299683 
	C277.508331,697.033569 276.053925,695.516113 275.697510,689.161377 
	C275.560822,686.724487 274.473572,685.619507 272.439301,684.771057 
	C267.060089,682.527527 263.597687,678.409790 261.399750,673.114990 
	C245.310928,634.357361 229.145294,595.631287 213.173996,556.825317 
	C208.807022,546.214783 213.890198,540.250488 225.321289,541.963440 
	C229.593338,542.603638 233.879013,543.169495 238.171448,543.654297 
	C254.355392,545.482178 270.546509,547.246460 286.731506,549.065369 
	C306.389465,551.274414 326.003448,554.047668 345.714874,555.543152 
	C357.704468,556.452759 364.840057,561.670044 369.218445,572.765381 
	C386.209473,615.822266 403.652893,658.700378 420.861267,701.671814 
	C423.788788,708.982178 424.647583,709.645325 432.751831,708.543152 
	C449.727631,706.234375 466.722198,704.047668 483.660583,701.489685 
	C488.346161,700.782104 493.465851,701.185791 498.079773,698.011597 
	C489.808533,693.482605 482.284027,689.565308 473.863190,696.913269 
	C471.146606,699.283691 467.425720,701.317688 463.221588,699.701477 
	C457.583710,697.534119 451.855164,696.376526 445.762329,695.635620 
	C439.975189,694.932007 434.229279,691.494507 429.127228,688.225830 
	C424.034637,684.963135 423.512451,678.056885 419.587036,673.514282 
	C417.517181,671.118958 417.266205,667.239746 415.483032,664.491821 
	C410.667206,657.070618 411.823151,650.602844 417.408600,644.179504 
	C420.776642,640.306213 426.957092,639.216248 430.779968,643.091614 
	C434.498871,646.861511 429.270416,648.598999 427.986359,651.204346 
	C427.412598,652.368530 426.169495,653.191101 425.527740,654.335571 
	C423.795441,657.424805 423.510162,660.487549 426.294403,663.634521 
	C432.537689,658.426147 436.764648,651.716248 442.332153,646.301514 
	C445.685547,643.040100 444.878113,640.584045 441.924225,637.988525 
	C437.536438,634.133057 432.106995,632.505005 426.655884,630.883667 
	C416.389374,627.829895 411.443665,628.606995 406.904205,638.208862 
	C406.813202,638.401367 406.326843,638.406860 405.302582,638.721558 
	C403.629059,634.738159 401.901581,630.679688 400.223145,626.600952 
	C399.676422,625.272278 400.456573,624.380371 401.442413,623.636047 
	C406.727997,619.645508 412.407166,616.691040 419.266602,616.746887 
	C431.150391,616.843628 442.300568,609.508057 446.827759,598.475403 
	C453.148041,583.072937 459.222443,567.567627 465.708893,552.236206 
	C468.037598,546.732117 469.320740,541.283203 469.013458,535.296753 
	C468.637024,527.962585 469.308960,520.622375 471.094818,513.507507 
	C472.730164,506.992340 474.033173,500.675171 471.982788,493.952179 
	C471.132172,491.163147 471.611481,488.020966 472.164001,485.027893 
	C473.747223,476.451782 476.574524,468.262329 480.349060,460.468292 
	C482.763885,455.481934 483.403778,450.677216 481.459290,445.556366 
	C478.998169,439.075012 478.735748,432.613770 481.122406,426.036865 
	C482.656891,421.808197 480.881989,419.165802 476.632355,418.372223 
	C472.062836,417.518921 467.431519,416.997925 462.828827,416.320709 
	C445.024506,413.701019 427.351318,410.474152 410.611786,403.574890 
	C405.353333,401.407562 399.617554,398.765320 399.649139,392.014313 
	C399.679840,385.443146 405.703064,383.814941 410.559601,381.869019 
	C459.964844,362.072510 511.188690,357.890228 563.613403,364.286652 
	C565.348938,364.498383 567.038452,364.813477 569.186707,362.937927 
	C540.226562,353.652374 511.606964,348.355713 482.068054,353.185883 
	C481.169250,350.509277 482.516754,349.240387 483.251282,347.812958 
	C496.669281,321.737518 511.511383,296.442810 525.525391,270.694244 
	C529.045593,264.226318 533.372681,258.780487 540.468872,255.949921 
	C553.924988,250.582504 567.315735,245.051132 580.771301,239.682281 
	C590.724365,235.710938 599.632385,237.424362 607.565918,244.725601 
	C616.881836,253.299088 626.460876,261.589600 635.686646,270.257416 
	C642.969543,277.099792 649.883545,284.334351 656.975708,291.380402 
	C659.795959,294.182343 660.385559,297.731110 658.892700,301.034790 
	C657.375427,304.392670 653.713562,303.473083 650.821289,303.225555 
	C648.704163,303.044403 646.631714,302.212524 644.565674,301.584198 
	C632.626282,297.953400 620.736206,294.152069 608.742126,290.712921 
	C603.127563,289.102966 600.622437,291.575897 602.098999,297.209045 
	C608.211548,320.527985 614.583069,343.779144 620.680969,367.101837 
	C621.924438,371.857544 624.753845,374.157379 629.241577,375.753204 
	C644.942566,381.336426 660.306519,387.785492 675.236389,395.205261 
	C681.659729,398.397491 687.796387,402.128784 693.057251,407.088562 
	C695.721008,409.599854 697.458252,412.643768 696.505005,416.458862 
	C695.554626,420.262177 692.290710,421.396088 688.993164,422.191772 
	C684.134644,423.364136 679.185608,424.017426 674.191223,424.289795 
	C664.047852,424.843048 653.912903,425.490112 643.740234,425.430695 
	C638.388489,425.399384 637.805359,426.547821 639.729614,431.339203 
	C642.066589,437.158356 645.431885,442.182739 650.227173,446.318451 
	C661.949646,456.428680 671.704041,467.800659 673.187866,484.139069 
	C673.424194,486.740814 675.295410,487.879456 677.230835,488.790527 
	C702.130920,500.512024 716.070618,521.148438 725.146118,546.237488 
	C739.395508,585.629456 750.671082,625.679260 754.660767,667.539612 
	C757.037659,692.477722 749.118225,713.400146 730.371521,730.126465 
	C718.861084,740.396423 706.119873,748.825928 692.291321,755.646667 
	C691.133423,756.217712 689.236206,756.272400 689.394592,758.817139 
	C709.028870,757.061340 725.237244,747.667175 740.709656,735.789307 
	C745.090942,746.653198 745.459167,757.292847 747.796204,769.070801 
	C781.624207,738.182861 807.561768,703.429016 826.677002,663.762573 
	C862.864929,588.668274 871.251831,510.202087 851.235962,429.395264 
	C813.544617,277.229492 675.709412,164.641220 515.041504,163.920898 
	C353.272522,163.195663 210.763168,276.294678 173.833908,434.013885 
	C154.957779,514.630981 164.555801,592.397156 201.187988,666.696045 
	C220.376740,705.615540 246.014175,739.659424 278.893311,769.107422 
	C281.199371,764.673706 281.745605,760.726746 282.654602,756.911072 
	C285.739990,743.960205 289.882812,731.508301 300.192352,722.273438 
	C306.212158,716.881226 312.750916,713.554138 321.530670,715.382019 
	C349.859009,721.279724 378.296173,726.653564 406.671265,732.329834 
	C410.788025,733.153381 415.165741,733.294739 419.846497,736.227051 
	C404.823212,748.568359 390.338806,760.457886 372.583374,768.279419 
	C374.980316,770.406921 376.965088,769.591003 378.837646,769.215210 
	C392.505371,766.472107 404.411621,759.678467 415.860962,752.245361 
	C435.920258,739.222595 456.851959,728.883606 481.033447,726.009033 
	C497.041656,724.106018 512.924561,721.163452 528.887207,718.849548 
	C532.171875,718.373474 534.391052,717.622131 533.624207,713.655640 
	C532.887146,709.843018 530.681091,709.073730 527.073608,709.618469 
	C502.079773,713.392700 477.063904,717.021179 451.208405,720.926514 
M602.953064,489.327423 
	C602.304016,469.753845 592.240479,454.136932 581.477905,437.895325 
	C578.975403,449.149048 576.580933,459.636963 575.843689,471.264221 
	C572.294983,467.890045 572.254272,463.492462 569.432556,461.157410 
	C564.330017,465.197479 561.789246,469.625732 565.252319,475.705200 
	C565.802246,476.670685 565.934265,477.940704 566.027893,479.088806 
	C566.568665,485.725037 566.738220,492.320801 563.657043,498.862671 
	C562.883606,498.097870 562.519226,497.906769 562.447144,497.637482 
	C562.104431,496.356506 561.832458,495.056183 561.551331,493.759308 
	C558.946838,481.747375 553.447693,471.528198 542.851318,464.746613 
	C535.722778,460.184479 528.305969,457.658386 519.905945,462.182648 
	C515.252563,464.688934 510.103180,465.413940 504.980469,462.984436 
	C503.110931,462.097748 501.324097,462.707733 499.727722,463.620575 
	C493.312164,467.289124 488.377716,472.306152 485.925140,479.441711 
	C485.395813,480.981750 484.706848,482.615906 486.513641,484.171844 
	C487.204437,483.981964 487.987213,483.789429 488.755096,483.549347 
	C489.517426,483.311096 490.267273,482.752808 491.588959,484.213074 
	C481.955200,513.739563 476.133545,543.808044 493.146271,574.018066 
	C496.642609,570.722107 494.663879,565.690857 499.059540,563.126160 
	C500.811523,573.378418 503.972748,582.830139 507.895874,591.962830 
	C511.882812,601.244019 512.440430,611.071838 512.656799,622.345215 
	C535.599060,608.540100 546.389160,588.611572 551.428589,563.991760 
	C556.685608,570.730591 554.012451,578.302917 556.853577,585.772888 
	C578.472534,564.944275 582.109009,538.848572 583.080200,510.742401 
	C589.429626,517.765808 589.513489,525.647217 592.611084,533.927002 
	C600.816223,519.589111 604.351929,505.523560 602.953064,489.327423 
M622.640320,640.476685 
	C621.509521,640.753296 620.392395,641.122559 619.245789,641.292847 
	C597.499512,644.523560 575.613586,646.245178 553.672729,647.422913 
	C548.655518,647.692322 543.497986,647.509338 537.892273,650.022034 
	C545.610901,658.862549 549.294922,668.928711 552.377075,679.348450 
	C559.502625,703.437683 566.849182,727.461548 574.124573,751.506348 
	C574.672729,753.318115 574.619934,755.538757 576.822327,756.298828 
	C577.991821,756.111938 578.487061,755.345703 578.502014,754.528503 
	C579.131653,720.116821 567.200134,688.694946 555.009766,656.796509 
	C558.011780,656.496094 560.783325,656.018677 563.561829,655.973755 
	C579.218933,655.719849 594.845337,654.959045 610.473206,653.941467 
	C617.910156,653.457214 625.318420,652.255615 632.891113,653.265198 
	C644.106506,654.760254 654.271484,659.476440 664.906982,662.745789 
	C667.456726,663.529541 669.997559,665.294678 673.591003,663.283569 
	C666.393066,652.472656 654.527649,648.724365 643.372681,642.255432 
	C657.581116,635.834473 671.455933,637.929321 686.010742,639.023315 
	C684.060547,634.785889 681.617981,633.443787 679.029541,632.305298 
	C670.339661,628.483154 661.216187,626.372559 651.792175,627.601440 
	C646.708984,628.264404 645.858215,626.454346 645.795593,622.116333 
	C645.550171,605.127869 645.080994,588.142517 644.659363,571.156921 
	C644.609741,569.157654 644.987305,566.964966 642.859619,564.849548 
	C640.333374,571.698853 639.272888,578.237610 638.308899,584.785217 
	C636.080811,599.917480 635.097900,615.209534 632.423645,630.289368 
	C631.479858,635.611267 628.854004,639.142090 622.640320,640.476685 
M468.169495,667.415222 
	C474.811707,664.078308 481.754730,663.196350 489.635773,664.022644 
	C487.884705,667.678406 485.124023,668.302246 482.753326,669.168152 
	C476.424438,671.479858 471.427582,675.535461 467.372345,680.713440 
	C465.579742,683.002319 461.569824,685.829834 464.221252,688.616028 
	C467.368256,691.922974 470.131104,687.655762 472.493225,685.703003 
	C486.862091,673.824463 492.384338,676.425110 502.521790,684.143127 
	C502.654327,684.243896 502.804993,684.323792 502.926331,684.435974 
	C513.044861,693.796875 524.838562,693.422852 537.122192,690.374756 
	C539.777588,689.715881 541.312744,688.459595 540.601868,685.479004 
	C538.857605,678.164795 536.560608,671.056274 532.769653,664.510925 
	C531.458923,662.247864 529.488403,660.804504 526.974854,660.059570 
	C517.214050,657.166809 507.840790,653.216736 498.621002,648.990784 
	C487.846252,644.052002 477.727356,643.882324 466.019562,647.390991 
	C452.577515,651.419250 444.329926,659.618713 437.834015,670.900574 
	C436.741028,672.798828 435.357971,674.753540 436.629578,678.166687 
	C443.253510,671.326172 447.357971,662.959595 454.622131,657.822632 
	C462.246399,652.431030 471.318817,652.435120 480.221313,652.354370 
	C474.784271,659.206543 465.439331,658.559998 459.694183,664.263550 
	C454.078003,669.839050 449.721039,676.318054 446.287506,683.529602 
	C449.789062,685.335266 451.124542,683.189880 452.646881,681.846802 
	C457.762878,677.333374 461.962036,671.844116 468.169495,667.415222 
M626.313232,449.156830 
	C630.014832,456.257782 637.017700,460.596436 642.052856,466.880005 
	C639.540344,468.147552 637.816956,467.360626 636.145142,466.734680 
	C625.102539,462.600159 616.501953,455.659485 611.187134,444.940125 
	C606.897156,436.287842 602.629028,427.623138 598.199036,419.042480 
	C595.895264,414.580048 591.427856,412.920410 586.264099,414.528503 
	C586.862732,416.379517 587.410156,418.263428 588.077393,420.103912 
	C592.197632,431.469452 598.989502,441.410553 605.013855,451.759369 
	C609.659729,459.740356 612.884766,468.175171 614.550720,477.331604 
	C615.378784,481.882782 614.386536,486.935852 617.715088,491.654938 
	C622.331238,485.900848 621.849121,479.686890 620.979187,472.322968 
	C633.067932,479.447296 645.788147,477.645874 658.341187,479.652832 
	C658.471680,476.270416 657.487305,474.226379 656.256531,472.232727 
	C653.347717,467.520966 650.018311,463.118317 645.645447,459.705933 
	C634.414917,450.942108 627.531372,439.516174 624.088196,425.803497 
	C622.783264,420.606812 620.753418,419.667786 614.990356,420.895966 
	C614.428345,422.103943 615.017212,423.231689 615.422424,424.262207 
	C618.650146,432.471558 621.689514,440.766022 626.313232,449.156830 
M523.144165,422.254211 
	C516.592163,418.967529 513.200867,419.269745 511.860901,423.645538 
	C509.573669,431.114563 508.212372,438.828064 507.429749,446.579651 
	C506.914368,451.684448 509.710327,453.593231 514.613159,452.029358 
	C517.618713,451.070679 520.544739,449.851990 523.475342,448.672791 
	C525.044800,448.041229 526.548828,447.167450 526.893982,445.326569 
	C527.856140,440.194275 531.056458,441.133118 533.009033,443.851288 
	C537.173279,449.648071 543.475647,451.835541 549.270874,454.952728 
	C554.054565,457.525787 555.794678,457.209961 556.542297,451.970764 
	C557.498169,445.272461 560.110046,439.758026 564.406616,434.771790 
	C565.137512,433.923523 565.520447,432.730927 565.912537,431.642761 
	C567.647766,426.826843 565.253113,422.856445 560.237610,422.311798 
	C555.878601,421.838440 551.710022,422.227814 547.637329,424.283569 
	C539.452332,428.415161 531.361084,428.759583 523.144165,422.254211 
M296.490814,618.407349 
	C295.176147,629.551025 300.747772,640.119141 310.368591,644.730164 
	C316.779846,647.802856 322.640656,645.081177 323.603729,638.583984 
	C324.981720,629.287476 318.530762,617.342102 310.007843,613.408447 
	C303.989227,610.630554 300.095398,611.878723 296.490814,618.407349 
M483.912598,623.392761 
	C483.684937,613.916748 482.782257,604.540283 479.995331,595.413208 
	C477.197510,605.787537 477.212952,616.390381 476.350800,626.897522 
	C476.085297,630.133118 477.915344,630.880798 480.672241,630.692688 
	C485.299164,630.377136 483.681335,626.872437 483.912598,623.392761 
M492.731934,440.731506 
	C493.798676,442.374390 493.535858,445.124664 496.875427,445.335754 
	C498.781921,441.127502 499.142639,436.550812 499.775543,432.039398 
	C500.175873,429.186035 498.991638,427.661194 496.101288,427.371338 
	C493.374329,427.097839 491.836853,428.059296 491.159027,430.902924 
	C490.370850,434.209442 491.541534,437.068298 492.731934,440.731506 
z"/>
<path fill="#000000" opacity="1.000000" stroke="none" 
	d="
M542.617188,485.762024 
	C544.933167,494.535309 544.961304,498.535736 542.189453,504.464325 
	C539.171997,493.371368 534.094116,486.043304 522.512512,484.033081 
	C509.084351,481.702393 505.294647,490.696838 501.038849,500.066071 
	C496.153870,493.219574 499.738129,479.722076 506.108154,475.770142 
	C513.052612,471.461853 519.520935,470.206757 526.753540,474.585602 
	C528.406616,475.586456 530.502991,476.055206 532.456421,476.321838 
	C537.933289,477.069489 541.046631,480.247101 542.617188,485.762024 
z"/>
</svg>